<svg xmlns="http://www.w3.org/2000/svg" viewBox="0 0 604 210" width="604" height="210" role="img" aria-label="dgrep"><title>dgrep</title><mask id="e" maskUnits="userSpaceOnUse"><rect x="-9999" y="-9999" width="99999" height="99999" fill="#fff"/><circle cx="60.20" cy="93.00" r="10.80" fill="#000"/></mask><g fill="#fff100" mask="url(#e)"><circle cx="67.00" cy="107.00" r="55.00"/><rect x="92.80" y="12.00" width="29.20" height="150.00" rx="14.60"/></g><path fill="#f2f2f2" d="M153.0 196.0V172.0H184.0Q192.4 172.0 196.9 167.8Q201.4 163.6 201.4 156.2V152.0L201.8 131.0H194.8L201.8 124.0Q201.8 138.2 194.0 146.1Q186.2 154.0 172.6 154.0Q156.0 154.0 146.0 142.4Q136.0 130.8 136.0 111.0V91.0Q136.0 71.39999999999999 146.0 59.699999999999996Q156.0 48.0 172.6 48.0Q186.2 48.0 194.0 55.9Q201.8 63.8 201.8 78.0L194.8 71.0H201.8L200.8 50.0H230.8V157.2Q230.8 175.2 218.5 185.6Q206.2 196.0 185.0 196.0ZM183.4 128.0Q191.60000000000002 128.0 196.20000000000002 123.3Q200.8 118.6 200.8 110.0V92.0Q200.8 83.39999999999999 196.20000000000002 78.69999999999999Q191.60000000000002 74.0 183.4 74.0Q175.0 74.0 170.5 78.69999999999999Q166.0 83.39999999999999 166.0 92.0V110.0Q166.0 118.6 170.5 123.3Q175.0 128.0 183.4 128.0ZM260.4 160.0V50.0H288.4V71.0H296.0L287.4 83.8Q287.4 66.0 295.6 57.0Q303.8 48.0 319.6 48.0Q337.8 48.0 347.9 59.0Q358.0 70.0 358.0 90.0V99.0H326.0V92.0Q326.0 83.0 321.1 78.0Q316.2 73.0 308.0 73.0Q299.4 73.0 294.9 78.0Q290.4 83.0 290.4 92.0V160.0ZM424.2 162.0Q409.6 162.0 398.70000000000005 156.5Q387.8 151.0 381.9 141.1Q376.0 131.2 376.0 118.0V92.0Q376.0 78.8 381.9 68.9Q387.8 59.0 398.70000000000005 53.5Q409.6 48.0 424.2 48.0Q438.8 48.0 449.5 53.5Q460.2 59.0 466.1 68.9Q472.0 78.8 472.0 92.0V112.0H404.6V118.0Q404.6 128.4 409.6 133.7Q414.6 139.0 424.6 139.0Q431.6 139.0 435.9 136.6Q440.2 134.2 441.6 130.0H471.0Q467.4 144.4 454.7 153.2Q442.0 162.0 424.2 162.0ZM443.4 96.6V91.6Q443.4 81.39999999999999 438.7 76.0Q434.0 70.6 424.2 70.6Q414.4 70.6 409.5 76.19999999999999Q404.6 81.8 404.6 92.0V95.0L445.4 94.6ZM497.2 196.0V50.0H526.2V71.0H533.2L526.2 78.0Q526.2 63.8 534.0 55.9Q541.8 48.0 555.4 48.0Q572.0 48.0 582.0 59.699999999999996Q592.0 71.39999999999999 592.0 91.0V119.0Q592.0 132.0 587.5 141.7Q583.0 151.4 574.8 156.7Q566.6 162.0 555.4 162.0Q541.8 162.0 534.0 154.1Q526.2 146.2 526.2 132.0L533.2 139.0H526.2L527.2 166.0V196.0ZM544.6 136.0Q553.0 136.0 557.5 131.3Q562.0 126.6 562.0 118.0V92.0Q562.0 83.19999999999999 557.5 78.6Q553.0 74.0 544.6 74.0Q536.4 74.0 531.8 78.69999999999999Q527.2 83.39999999999999 527.2 92.0V118.0Q527.2 126.6 531.8 131.3Q536.4 136.0 544.6 136.0Z"/></svg>
